<svg xmlns="http://www.w3.org/2000/svg" viewBox="0 0 512 512" role="img" aria-label="FitPro Elite App Icon">
  <defs>
    <linearGradient id="g" x1="80" y1="58" x2="420" y2="438"><stop offset="0" stop-color="#f3fff8"/><stop offset=".2" stop-color="#9dffd6"/><stop offset=".55" stop-color="#12ef88"/><stop offset="1" stop-color="#047857"/></linearGradient>
    <linearGradient id="e" x1="0" x2="1" y1="0" y2="1"><stop offset="0" stop-color="#fff" stop-opacity=".9"/><stop offset="1" stop-color="#00e676" stop-opacity="0"/></linearGradient>
    <radialGradient id="h" cx="50%" cy="45%" r="68%"><stop offset="0" stop-color="#00f08a" stop-opacity=".6"/><stop offset=".5" stop-color="#00e676" stop-opacity=".17"/><stop offset="1" stop-color="#020617" stop-opacity="0"/></radialGradient>
    <filter id="glow" x="-45%" y="-50%" width="200%" height="210%"><feGaussianBlur stdDeviation="14" result="b"/><feColorMatrix in="b" type="matrix" values="0 0 0 0 0 0 0 0 0 .95 0 0 0 0 .45 0 0 0 .85 0" result="c"/><feMerge><feMergeNode in="c"/><feMergeNode in="SourceGraphic"/></feMerge></filter>
  </defs>
  <rect width="512" height="512" rx="118" fill="#020806"/>
  <rect x="30" y="34" width="452" height="444" rx="104" fill="none" stroke="#2cff9c" stroke-opacity=".18" stroke-width="3"/>
  <ellipse cx="260" cy="248" rx="224" ry="168" fill="url(#h)"/>
  <path d="M25 156h178c56 0 106-10 164-34M12 230h234c70 0 134-16 212-48M52 300h204c70 0 140-10 210-40" fill="none" stroke="#00f08a" stroke-width="12" stroke-linecap="round" opacity=".34"/>
  <path d="M88 374 158 112h218c68 0 120 32 120 88 0 60-54 94-144 94h-90l-18 80h-78l20-80H90l26-78h110l16-54H116l20-50H88L66 162h48L58 374Z" fill="url(#g)" filter="url(#glow)"/>
  <path d="M248 162h122c36 0 56 12 56 32 0 28-30 42-82 42H228Z" fill="url(#g)" opacity=".96"/>
  <path d="M298 198h78c16 0 26 6 26 14 0 12-16 20-42 20h-78Z" fill="#03110c"/>
  <path d="M118 216h224" fill="none" stroke="url(#e)" stroke-width="12" stroke-linecap="round" opacity=".86"/>
  <path d="M152 324h56l24-40 20 84 30-76 24 32h88" fill="none" stroke="#a8ffd0" stroke-width="16" stroke-linecap="round" stroke-linejoin="round"/>
</svg>
