<svg xmlns="http://www.w3.org/2000/svg" viewBox="0 0 256 256" role="img" aria-label="FitPro Elite">
  <defs>
    <linearGradient id="g" x1="42" y1="30" x2="210" y2="218"><stop offset="0" stop-color="#f3fff8"/><stop offset=".2" stop-color="#9dffd6"/><stop offset=".55" stop-color="#12ef88"/><stop offset="1" stop-color="#047857"/></linearGradient>
    <linearGradient id="e" x1="0" x2="1" y1="0" y2="1"><stop offset="0" stop-color="#fff" stop-opacity=".9"/><stop offset="1" stop-color="#00e676" stop-opacity="0"/></linearGradient>
    <radialGradient id="h" cx="50%" cy="45%" r="68%"><stop offset="0" stop-color="#00f08a" stop-opacity=".58"/><stop offset=".5" stop-color="#00e676" stop-opacity=".17"/><stop offset="1" stop-color="#020617" stop-opacity="0"/></radialGradient>
    <filter id="glow" x="-45%" y="-50%" width="200%" height="210%"><feGaussianBlur stdDeviation="7" result="b"/><feColorMatrix in="b" type="matrix" values="0 0 0 0 0 0 0 0 0 .95 0 0 0 0 .45 0 0 0 .85 0" result="c"/><feMerge><feMergeNode in="c"/><feMergeNode in="SourceGraphic"/></feMerge></filter>
  </defs>
  <rect width="256" height="256" rx="58" fill="#020806"/>
  <ellipse cx="130" cy="124" rx="112" ry="84" fill="url(#h)"/>
  <path d="M13 78h89c28 0 53-5 82-17M6 115h117c35 0 67-8 106-24M26 150h102c35 0 70-5 105-20" fill="none" stroke="#00f08a" stroke-width="6" stroke-linecap="round" opacity=".34"/>
  <path d="M44 187 79 56h109c34 0 60 16 60 44 0 30-27 47-72 47h-45l-9 40H83l10-40H45l13-39h55l8-27H58l10-25H44L33 81h24L29 187Z" fill="url(#g)" filter="url(#glow)"/>
  <path d="M124 81h61c18 0 28 6 28 16 0 14-15 21-41 21h-58Z" fill="url(#g)" opacity=".96"/>
  <path d="M149 99h39c8 0 13 3 13 7 0 6-8 10-21 10h-39Z" fill="#03110c"/>
  <path d="M59 108h112" fill="none" stroke="url(#e)" stroke-width="6" stroke-linecap="round" opacity=".86"/>
  <path d="M76 162h28l12-20 10 42 15-38 12 16h44" fill="none" stroke="#a8ffd0" stroke-width="8" stroke-linecap="round" stroke-linejoin="round"/>
</svg>
