<svg width="1400" height="520" viewBox="0 0 1400 520" fill="none" xmlns="http://www.w3.org/2000/svg">
  <defs>
    <radialGradient id="bg" cx="50%" cy="40%" r="85%">
      <stop offset="0%" stop-color="#123826"/>
      <stop offset="42%" stop-color="#07120d"/>
      <stop offset="100%" stop-color="#030604"/>
    </radialGradient>
    <linearGradient id="neon" x1="0" x2="1">
      <stop offset="0%" stop-color="#56f08a"/>
      <stop offset="48%" stop-color="#18d66d"/>
      <stop offset="100%" stop-color="#a4ff3d"/>
    </linearGradient>
    <linearGradient id="silver" x1="0" x2="1">
      <stop offset="0%" stop-color="#f8fafc"/>
      <stop offset="55%" stop-color="#cbd5e1"/>
      <stop offset="100%" stop-color="#ffffff"/>
    </linearGradient>
    <filter id="glow" x="-30%" y="-30%" width="160%" height="160%">
      <feGaussianBlur stdDeviation="8" result="blur"/>
      <feColorMatrix in="blur" type="matrix" values="0 0 0 0 0.1  0 0 0 0 1  0 0 0 0 0.42  0 0 0 0.95 0"/>
      <feBlend in="SourceGraphic"/>
    </filter>
    <filter id="soft" x="-20%" y="-20%" width="140%" height="140%">
      <feGaussianBlur stdDeviation="22"/>
    </filter>
    <style>
      .trail { stroke-dasharray: 560; stroke-dashoffset: 560; animation: trail 5s ease-in-out infinite; }
      .pulse { animation: pulse 2.4s ease-in-out infinite; transform-origin: 215px 255px; }
      .sweep { stroke-dasharray: 180 720; animation: sweep 4.2s linear infinite; }
      .blink { animation: blink 1.8s ease-in-out infinite; }
      @keyframes trail { 0%{stroke-dashoffset:560;opacity:.15} 45%{stroke-dashoffset:0;opacity:.85} 100%{stroke-dashoffset:-560;opacity:.15} }
      @keyframes sweep { to { stroke-dashoffset:-900; } }
      @keyframes pulse { 0%,100%{filter:drop-shadow(0 0 6px #22c55e); transform:scale(1)} 50%{filter:drop-shadow(0 0 22px #84ff5f); transform:scale(1.025)} }
      @keyframes blink { 0%,100%{opacity:.45} 50%{opacity:1} }
      @media (prefers-reduced-motion: reduce) { .trail,.pulse,.sweep,.blink { animation: none; } }
    </style>
  </defs>

  <rect width="1400" height="520" rx="36" fill="url(#bg)"/>
  <circle cx="1120" cy="100" r="210" fill="#16a34a" opacity=".12" filter="url(#soft)"/>
  <circle cx="190" cy="400" r="230" fill="#84cc16" opacity=".10" filter="url(#soft)"/>

  <g opacity=".55">
    <path class="trail" d="M52 360 C260 260 430 420 642 312 C814 224 1002 282 1348 144" stroke="url(#neon)" stroke-width="2"/>
    <path class="trail" d="M74 415 C252 318 498 370 666 248 C830 130 1036 210 1328 74" stroke="url(#neon)" stroke-width="1.2" style="animation-delay:.7s"/>
    <path class="trail" d="M118 206 C336 120 458 236 652 180 C824 130 1020 142 1270 46" stroke="#7CFF6B" stroke-width="1" opacity=".5" style="animation-delay:1.2s"/>
  </g>

  <g transform="translate(86 96)" class="pulse">
    <circle cx="185" cy="164" r="126" stroke="url(#neon)" stroke-width="4" opacity=".42" class="sweep"/>
    <path d="M95 292 V46 H202 C246 46 280 80 280 123 C280 168 246 199 202 199 H146 V292 H95Z" fill="#06110b" stroke="url(#neon)" stroke-width="12" filter="url(#glow)"/>
    <path d="M146 100 H204 C218 100 230 111 230 126 C230 141 218 152 204 152 H146 V100Z" fill="#0b1e13" stroke="#B6FF58" stroke-width="9"/>
    <path d="M95 112 H44 M95 188 H38 M95 254 H54" stroke="url(#neon)" stroke-width="12" stroke-linecap="round" opacity=".96"/>
    <path d="M58 318 H128 L144 286 L170 348 L197 292 L213 318 H306" stroke="#a4ff3d" stroke-width="6" stroke-linecap="round" stroke-linejoin="round" filter="url(#glow)"/>
  </g>

  <text x="390" y="178" fill="url(#silver)" font-family="Inter, Segoe UI, Arial, sans-serif" font-size="82" font-weight="900" letter-spacing="-3">FitPro</text>
  <text x="660" y="178" fill="url(#neon)" font-family="Inter, Segoe UI, Arial, sans-serif" font-size="82" font-weight="900" letter-spacing="-3" filter="url(#glow)">Elite</text>
  <text x="395" y="220" fill="#9ca3af" font-family="Inter, Segoe UI, Arial, sans-serif" font-size="20" font-weight="700" letter-spacing="8">TRAIN · TRACK · TRANSFORM</text>

  <rect x="392" y="262" width="814" height="114" rx="24" fill="#08110d" opacity=".78" stroke="#1f3f2d"/>
  <text x="424" y="310" fill="#e5e7eb" font-family="Inter, Segoe UI, Arial, sans-serif" font-size="26" font-weight="800">SaaS fitness-tech premium para personais, alunos e gestão operacional.</text>
  <text x="424" y="346" fill="#94a3b8" font-family="Inter, Segoe UI, Arial, sans-serif" font-size="18">Treinos inteligentes · Progresso real · Comunidade · Pagamentos · Supabase · Railway/Vercel</text>

  <g transform="translate(394 400)" font-family="Inter, Segoe UI, Arial, sans-serif" font-size="16" font-weight="800">
    <rect width="154" height="38" rx="19" fill="#0b1e13" stroke="#166534"/><text x="20" y="25" fill="#bbf7d0">Sprint 36</text>
    <rect x="170" width="186" height="38" rx="19" fill="#0b1e13" stroke="#166534"/><text x="190" y="25" fill="#bbf7d0">Fullstack</text>
    <rect x="372" width="214" height="38" rx="19" fill="#0b1e13" stroke="#166534"/><text x="392" y="25" fill="#bbf7d0">Executive Plus</text>
    <rect x="602" width="216" height="38" rx="19" fill="#0b1e13" stroke="#166534"/><text x="622" y="25" fill="#bbf7d0">All Rights Reserved</text>
  </g>
</svg>